<svg xmlns="http://www.w3.org/2000/svg" width="76" height="76" viewBox="0 0 32 32"><g fill="none"><path fill="url(#f485id0)" d="M15.999 29.998c9.334 0 13.999-6.268 13.999-14c0-7.73-4.665-13.998-14-13.998C6.665 2 2 8.268 2 15.999s4.664 13.999 13.999 13.999"/><path fill="url(#f485id1)" d="M15.999 29.998c9.334 0 13.999-6.268 13.999-14c0-7.73-4.665-13.998-14-13.998C6.665 2 2 8.268 2 15.999s4.664 13.999 13.999 13.999"/><path fill="url(#f485id2)" d="M15.999 29.998c9.334 0 13.999-6.268 13.999-14c0-7.73-4.665-13.998-14-13.998C6.665 2 2 8.268 2 15.999s4.664 13.999 13.999 13.999"/><path fill="url(#f485id3)" fill-opacity="0.6" d="M15.999 29.998c9.334 0 13.999-6.268 13.999-14c0-7.73-4.665-13.998-14-13.998C6.665 2 2 8.268 2 15.999s4.664 13.999 13.999 13.999"/><path fill="url(#f485id4)" d="M15.999 29.998c9.334 0 13.999-6.268 13.999-14c0-7.73-4.665-13.998-14-13.998C6.665 2 2 8.268 2 15.999s4.664 13.999 13.999 13.999"/><path fill="url(#f485id5)" d="M15.999 29.998c9.334 0 13.999-6.268 13.999-14c0-7.73-4.665-13.998-14-13.998C6.665 2 2 8.268 2 15.999s4.664 13.999 13.999 13.999"/><path fill="url(#f485id6)" d="M15.999 29.998c9.334 0 13.999-6.268 13.999-14c0-7.73-4.665-13.998-14-13.998C6.665 2 2 8.268 2 15.999s4.664 13.999 13.999 13.999"/><path fill="url(#f485id7)" d="M15.999 29.998c9.334 0 13.999-6.268 13.999-14c0-7.73-4.665-13.998-14-13.998C6.665 2 2 8.268 2 15.999s4.664 13.999 13.999 13.999"/><circle cx="9.017" cy="13.421" r="4.673" fill="url(#f485id8)"/><circle cx="19.244" cy="13.943" r="4.244" fill="url(#f485id9)"/><path fill="#fff" d="M10.42 16.224a4.206 4.206 0 1 0 0-8.411a4.206 4.206 0 0 0 0 8.411m11.148.077a4.244 4.244 0 1 0 0-8.489a4.244 4.244 0 0 0 0 8.49"/><path fill="url(#f485idc)" d="M11 15a3 3 0 1 0 0-6a3 3 0 0 0 0 6"/><path fill="url(#f485idd)" d="M21 15a3 3 0 1 0 0-6a3 3 0 0 0 0 6"/><path fill="url(#f485ida)" d="M15.999 26c-7 0-7-7-7-7h14s0 7-7 7"/><path fill="url(#f485idb)" d="M16.016 29c4.2 0 4.87-4.2 5-5.25c.1-.85-.35-1.28-.84-1.57s-1.96-.56-4.16-.56s-3.66.27-4.16.56s-.95.72-.84 1.57c.13 1.05.8 5.25 5 5.25"/><g filter="url(#f485idf)" opacity="0.5"><path stroke="#fff" d="M18 26.5c1-.5 2-1.5 2-3" stroke-width="1"/></g><path fill="url(#f485ide)" d="M22.859 20.43c.09-.46.14-.94.14-1.43h-14c0 .49.05.96.14 1.43z"/><defs><radialGradient id="f485id0" cx="0" cy="0" r="1" gradientTransform="rotate(132.839 10.786 10.065)scale(37.5033)" gradientUnits="userSpaceOnUse"><stop stop-color="#fff478"/><stop offset=".475" stop-color="#ffb02e"/><stop offset="1" stop-color="#f70a8d"/></radialGradient><radialGradient id="f485id1" cx="0" cy="0" r="1" gradientTransform="rotate(131.878 10.74 10.193)scale(38.9487)" gradientUnits="userSpaceOnUse"><stop stop-color="#fff478"/><stop offset=".475" stop-color="#ffb02e"/><stop offset="1" stop-color="#f70a8d"/></radialGradient><radialGradient id="f485id2" cx="0" cy="0" r="1" gradientTransform="rotate(101.31 2.876 12.808)scale(17.8466 22.8581)" gradientUnits="userSpaceOnUse"><stop offset=".788" stop-color="#f59639" stop-opacity="0"/><stop offset=".973" stop-color="#ff7dce"/></radialGradient><radialGradient id="f485id3" cx="0" cy="0" r="1" gradientTransform="matrix(-29 29 -29 -29 18 14)" gradientUnits="userSpaceOnUse"><stop offset=".315" stop-opacity="0"/><stop offset="1"/></radialGradient><radialGradient id="f485id4" cx="0" cy="0" r="1" gradientTransform="rotate(77.692 -2.555 18.434)scale(28.1469)" gradientUnits="userSpaceOnUse"><stop offset=".508" stop-color="#7d6133" stop-opacity="0"/><stop offset="1" stop-color="#715b32"/></radialGradient><radialGradient id="f485id5" cx="0" cy="0" r="1" gradientTransform="matrix(7.5 10.99996 -7.97335 5.4364 16.5 16.5)" gradientUnits="userSpaceOnUse"><stop stop-color="#ffb849"/><stop offset="1" stop-color="#ffb847" stop-opacity="0"/></radialGradient><radialGradient id="f485id6" cx="0" cy="0" r="1" gradientTransform="matrix(11.49998 2 -2 11.49998 20.5 18)" gradientUnits="userSpaceOnUse"><stop stop-color="#ffa64b"/><stop offset=".9" stop-color="#ffae46" stop-opacity="0"/></radialGradient><radialGradient id="f485id7" cx="0" cy="0" r="1" gradientTransform="rotate(43.971 -9.827 29.173)scale(59.0529)" gradientUnits="userSpaceOnUse"><stop offset=".185" stop-opacity="0"/><stop offset="1" stop-opacity="0.4"/></radialGradient><radialGradient id="f485id8" cx="0" cy="0" r="1" gradientTransform="rotate(135 4.3 7.513)scale(9.10579 4.71285)" gradientUnits="userSpaceOnUse"><stop stop-color="#392108"/><stop offset="1" stop-color="#c87928" stop-opacity="0"/></radialGradient><radialGradient id="f485id9" cx="0" cy="0" r="1" gradientTransform="rotate(135 9.069 9.99)scale(7.66968 4.32966)" gradientUnits="userSpaceOnUse"><stop stop-color="#392108"/><stop offset="1" stop-color="#c87928" stop-opacity="0"/></radialGradient><radialGradient id="f485ida" cx="0" cy="0" r="1" gradientTransform="matrix(0 -8.55556 17.1111 0 15.999 27.556)" gradientUnits="userSpaceOnUse"><stop stop-color="#f70a8d"/><stop offset="1" stop-color="#89029c"/></radialGradient><radialGradient id="f485idb" cx="0" cy="0" r="1" gradientTransform="matrix(-.5 -9.5 16.51504 -.86922 16.5 30)" gradientUnits="userSpaceOnUse"><stop stop-color="#ff1c4a"/><stop offset=".766" stop-color="#ff2b8f"/><stop offset=".864" stop-color="#bb0773"/><stop offset=".886" stop-color="#9f0762"/></radialGradient><linearGradient id="f485idc" x1="16.5" x2="15.5" y1="8" y2="15" gradientUnits="userSpaceOnUse"><stop stop-color="#553b3e"/><stop offset="1" stop-color="#3d2432"/></linearGradient><linearGradient id="f485idd" x1="16.5" x2="15.5" y1="8" y2="15" gradientUnits="userSpaceOnUse"><stop stop-color="#553b3e"/><stop offset="1" stop-color="#3d2432"/></linearGradient><linearGradient id="f485ide" x1="15.999" x2="15.999" y1="19" y2="20.43" gradientUnits="userSpaceOnUse"><stop stop-color="#eccdff"/><stop offset="1" stop-color="#fff"/></linearGradient><filter id="f485idf" width="4.724" height="5.447" x="16.776" y="22.5" color-interpolation-filters="sRGB" filterUnits="userSpaceOnUse"><feFlood flood-opacity="0" result="BackgroundImageFix"/><feBlend in="SourceGraphic" in2="BackgroundImageFix" result="shape"/><feGaussianBlur result="effect1_foregroundBlur_31_20" stdDeviation=".5"/></filter></defs></g></svg>
